<?xml version="1.0" standalone="no"?>
<!DOCTYPE svg PUBLIC "-//W3C//DTD SVG 20010904//EN"
 "http://www.w3.org/TR/2001/REC-SVG-20010904/DTD/svg10.dtd">
<svg version="1.0" xmlns="http://www.w3.org/2000/svg"
 width="1280.000000pt" height="775.000000pt" viewBox="0 0 1280.000000 775.000000"
 preserveAspectRatio="xMidYMid meet">
<g transform="translate(0.000000,775.000000) scale(0.100000,-0.100000)"
fill="#000000" stroke="none">
<path d="M610 7725 c-34 -25 -38 -25 -235 -25 -169 0 -207 -3 -248 -18 -26
-10 -51 -22 -56 -28 -5 -5 -18 -41 -29 -79 l-21 -70 23 -91 c20 -77 43 -126
158 -330 123 -216 141 -254 189 -401 52 -159 53 -162 34 -183 -10 -11 -95 -67
-189 -124 -167 -102 -172 -106 -199 -160 -15 -31 -27 -60 -27 -63 0 -4 26 17
57 48 144 138 154 145 233 164 57 13 83 26 110 51 20 19 41 34 47 34 17 0 74
-107 88 -165 l12 -50 -54 -102 c-31 -58 -64 -140 -77 -188 -13 -47 -22 -85
-20 -85 2 0 47 63 101 140 l97 141 84 -128 c45 -70 175 -275 288 -455 204
-328 204 -328 204 -386 0 -51 5 -64 45 -125 29 -43 52 -67 64 -67 40 0 51 -11
51 -52 0 -22 -5 -48 -11 -60 -8 -15 -6 -33 11 -78 18 -49 26 -59 53 -67 24 -6
33 -15 35 -35 2 -19 13 -30 43 -43 39 -18 47 -29 30 -39 -4 -3 -11 -38 -15
-78 -4 -40 -9 -81 -12 -90 -4 -15 1 -18 30 -18 40 0 37 8 61 -175 21 -161 21
-161 55 -182 29 -17 30 -19 30 -96 0 -111 32 -220 79 -270 35 -37 36 -42 47
-147 l10 -108 56 -70 c94 -115 186 -276 258 -446 65 -156 73 -169 265 -441
108 -154 204 -288 212 -297 14 -15 11 -20 -23 -50 -21 -18 -60 -52 -86 -76
-27 -23 -53 -42 -58 -42 -6 0 -82 48 -169 106 -88 58 -164 103 -170 99 -6 -3
-11 -29 -11 -57 0 -45 8 -66 64 -162 59 -103 94 -182 84 -191 -2 -3 -39 6 -81
19 -60 19 -99 40 -187 105 -62 46 -117 84 -124 87 -7 3 -21 -5 -31 -16 -19
-21 -18 -22 37 -133 38 -75 78 -138 123 -190 46 -53 64 -82 57 -89 -19 -19
-202 27 -302 77 -50 25 -95 43 -100 40 -21 -13 -10 -61 20 -90 23 -22 30 -38
32 -78 3 -51 4 -52 61 -85 56 -34 57 -35 57 -80 0 -59 46 -119 173 -230 91
-78 95 -80 222 -122 99 -31 162 -45 264 -56 113 -12 139 -18 158 -36 15 -14
58 -30 114 -44 l90 -21 192 44 c169 39 213 54 369 123 l177 78 268 -122 c252
-115 394 -170 557 -214 l70 -19 42 -99 42 -99 147 -136 147 -135 117 -38 c64
-21 157 -56 208 -77 81 -34 101 -39 173 -39 65 0 90 -5 128 -24 38 -19 99 -30
327 -60 l280 -35 130 35 c71 19 131 36 133 38 1 2 7 29 12 60 5 31 11 60 14
65 3 5 53 12 111 16 l104 7 36 39 c19 21 35 43 35 48 0 5 -54 33 -120 62 -66
30 -118 59 -117 64 2 6 50 11 109 13 l105 3 269 -104 c340 -132 311 -123 339
-97 l23 21 187 -66 c104 -36 193 -72 199 -79 7 -8 60 -20 131 -29 66 -9 252
-34 413 -56 l293 -40 23 26 23 27 329 -33 c181 -17 348 -34 372 -38 l42 -5 0
40 c0 23 5 44 11 48 8 4 534 92 565 94 0 0 0 10 0 22 -1 19 21 30 168 90 94
37 174 72 180 78 5 5 24 10 41 10 22 0 97 43 275 155 135 85 248 155 252 155
23 0 118 -44 118 -54 0 -11 111 -102 350 -288 32 -24 50 -47 55 -68 7 -30 19
-38 30 -20 11 18 47 11 330 -68 l280 -79 345 33 c325 32 345 35 367 57 l24 23
-35 46 c-33 43 -38 46 -91 50 -61 5 -90 22 -65 38 8 5 50 22 93 36 64 23 77
31 77 49 0 34 -40 65 -86 65 -32 1 -48 9 -88 45 -75 70 -67 75 127 75 159 0
164 1 186 24 15 16 21 32 18 51 -3 26 -9 29 -103 52 -92 23 -101 28 -123 60
l-23 36 54 -6 c29 -4 95 -9 146 -13 l92 -7 0 57 0 56 -34 0 c-27 0 -49 14
-124 78 -49 44 -140 114 -201 157 l-111 78 -52 100 c-43 80 -62 107 -100 134
-27 19 -48 36 -48 37 0 0 16 37 35 81 l35 80 0 198 0 197 33 0 c23 0 41 -8 57
-25 20 -21 32 -25 82 -25 55 0 63 3 109 42 l49 41 0 128 0 128 -78 56 c-68 48
-83 65 -122 136 -24 44 -93 139 -154 211 -102 122 -114 142 -169 267 -32 75
-64 143 -71 151 -7 8 -69 125 -138 260 -114 223 -143 272 -331 540 l-207 295
-83 50 c-71 43 -116 85 -315 292 -230 239 -233 242 -299 264 -51 17 -110 54
-264 165 -181 132 -201 144 -240 144 -36 0 -85 23 -329 160 l-287 160 -105 0
c-88 0 -122 5 -208 30 -92 28 -147 35 -544 70 -659 59 -604 57 -791 17 -157
-33 -162 -34 -259 -22 -89 11 -113 9 -245 -11 -80 -12 -236 -27 -346 -33 -110
-6 -259 -21 -332 -33 -131 -22 -133 -22 -230 -4 -54 10 -152 35 -218 56 -117
37 -126 38 -352 50 l-231 11 -182 79 -183 80 -187 0 -187 0 -75 65 -76 65
-146 33 c-141 33 -148 35 -246 101 -82 54 -104 74 -122 111 -16 33 -28 45 -43
45 -12 0 -82 35 -155 77 -107 62 -139 85 -164 122 -55 80 -87 108 -312 269
l-221 158 -229 67 -229 67 -320 35 -320 34 -164 61 c-91 34 -169 64 -174 67
-5 3 24 39 64 80 l74 75 -110 -57 c-60 -32 -115 -62 -121 -67 -22 -17 -261
108 -564 295 -167 104 -313 193 -325 200 -17 9 -177 37 -210 36 -5 0 -26 -11
-45 -24z"/>
</g>
</svg>
